<svg width="41" height="40" viewBox="0 0 41 40" fill="none" xmlns="http://www.w3.org/2000/svg">
<rect x="0.668335" width="40" height="40" rx="20" fill="#1A1D2D"/>
<g clip-path="url(#clip0_4431_21066)">
<path d="M12.7713 20L12.7839 24.6363L16.7234 26.9544V29.6687L10.4785 26.0061V18.6442L12.7713 20ZM12.7713 15.3637V18.0654L10.4771 16.7083V14.0066L12.7713 12.6494L15.0768 14.0066L12.7713 15.3637ZM18.3685 14.0066L20.6628 12.6494L22.9683 14.0066L20.6628 15.3637L18.3685 14.0066Z" fill="#FFEB39"/>
<path d="M14.4291 23.6753V20.961L16.7233 22.3181V25.0198L14.4291 23.6753ZM18.3685 27.9266L20.6627 29.2838L22.9682 27.9266V30.6283L20.6627 31.9855L18.3685 30.6283V27.9266ZM26.2586 14.0066L28.5528 12.6494L30.8583 14.0066V16.7083L28.5528 18.0654V15.3637L26.2586 14.0066ZM28.5528 24.6363L28.5655 20L30.8597 18.6428V26.0047L24.6148 29.6673V26.953L28.5528 24.6363Z" fill="#FFEB39"/>
<path d="M26.9077 23.6753L24.6134 25.0198V22.3181L26.9077 20.961V23.6753Z" fill="#FFEB39"/>
<path d="M26.9077 16.3247L26.9203 19.039L22.9696 21.3572V26.0047L20.6754 27.3492L18.3811 26.0047V21.3572L14.4305 19.039V16.3247L16.7346 14.9675L20.6613 17.2969L24.612 14.9675L26.9175 16.3247H26.9077ZM14.4291 11.6899L20.6627 8.01456L26.9077 11.6899L24.6134 13.047L20.6627 10.7176L16.7233 13.047L14.4291 11.6899Z" fill="#FFEB39"/>
</g>
<defs>
<clipPath id="clip0_4431_21066">
<rect width="20.3968" height="24" fill="white" transform="translate(10.47 8)"/>
</clipPath>
</defs>
</svg>
